<svg width="23" height="22" viewBox="0 0 23 22" fill="none" xmlns="http://www.w3.org/2000/svg">
<path d="M20.9163 9.58148H5.09211L12.0054 2.66815C12.5579 2.11565 12.5579 1.20898 12.0054 0.656483C11.8744 0.525153 11.7187 0.42096 11.5473 0.34987C11.3759 0.27878 11.1922 0.242188 11.0067 0.242188C10.8212 0.242188 10.6374 0.27878 10.4661 0.34987C10.2947 0.42096 10.139 0.525153 10.0079 0.656483L0.672109 9.99231C0.540779 10.1234 0.436586 10.2791 0.365496 10.4504C0.294405 10.6218 0.257813 10.8055 0.257812 10.9911C0.257813 11.1766 0.294405 11.3603 0.365496 11.5317C0.436586 11.7031 0.540779 11.8588 0.672109 11.9898L10.0079 21.3256C10.1391 21.4568 10.2948 21.5608 10.4662 21.6318C10.6375 21.7028 10.8212 21.7393 11.0067 21.7393C11.1922 21.7393 11.3758 21.7028 11.5472 21.6318C11.7186 21.5608 11.8743 21.4568 12.0054 21.3256C12.1366 21.1945 12.2406 21.0388 12.3116 20.8674C12.3826 20.696 12.4191 20.5124 12.4191 20.3269C12.4191 20.1414 12.3826 19.9577 12.3116 19.7864C12.2406 19.615 12.1366 19.4593 12.0054 19.3281L5.09211 12.4148H20.9163C21.6954 12.4148 22.3329 11.7773 22.3329 10.9981C22.3329 10.219 21.6954 9.58148 20.9163 9.58148Z" fill="#F6F6F7"/>
</svg>
