<svg width="39" height="32" viewBox="0 0 39 32" fill="none" xmlns="http://www.w3.org/2000/svg">
<g clip-path="url(#clip0_6381_5792)">
<path d="M9.38851 0.9375C10.6467 0.9375 11.8533 1.4373 12.7429 2.32694C13.6325 3.21658 14.1323 4.42319 14.1323 5.68133C14.1323 6.93948 13.6325 8.14609 12.7429 9.03573C11.8533 9.92537 10.6467 10.4252 9.38851 10.4252C8.13037 10.4252 6.92375 9.92537 6.03411 9.03573C5.14447 8.14609 4.64468 6.93948 4.64468 5.68133C4.64468 4.42319 5.14447 3.21658 6.03411 2.32694C6.92375 1.4373 8.13037 0.9375 9.38851 0.9375ZM31.2101 0.9375C32.4683 0.9375 33.6749 1.4373 34.5645 2.32694C35.4542 3.21658 35.954 4.42319 35.954 5.68133C35.954 6.93948 35.4542 8.14609 34.5645 9.03573C33.6749 9.92537 32.4683 10.4252 31.2101 10.4252C29.952 10.4252 28.7454 9.92537 27.8557 9.03573C26.9661 8.14609 26.4663 6.93948 26.4663 5.68133C26.4663 4.42319 26.9661 3.21658 27.8557 2.32694C28.7454 1.4373 29.952 0.9375 31.2101 0.9375ZM0.849609 18.6498C0.849609 15.1571 3.68405 12.3227 7.1767 12.3227H9.70872C10.6516 12.3227 11.547 12.5302 12.3534 12.8979C12.2763 13.3248 12.2407 13.7696 12.2407 14.2202C12.2407 16.4854 13.2369 18.5193 14.8083 19.9128C14.7965 19.9128 14.7846 19.9128 14.7668 19.9128H2.11265C1.41887 19.9128 0.849609 19.3436 0.849609 18.6498ZM24.8831 19.9128C24.8712 19.9128 24.8593 19.9128 24.8415 19.9128C26.4189 18.5193 27.4091 16.4854 27.4091 14.2202C27.4091 13.7696 27.3676 13.3308 27.2965 12.8979C28.1029 12.5243 28.9983 12.3227 29.9412 12.3227H32.4732C35.9658 12.3227 38.8003 15.1571 38.8003 18.6498C38.8003 19.3495 38.231 19.9128 37.5372 19.9128H24.8831ZM14.1323 14.2202C14.1323 12.7105 14.7321 11.2625 15.7997 10.195C16.8672 9.12739 18.3152 8.52763 19.8249 8.52763C21.3347 8.52763 22.7826 9.12739 23.8502 10.195C24.9178 11.2625 25.5175 12.7105 25.5175 14.2202C25.5175 15.73 24.9178 17.1779 23.8502 18.2455C22.7826 19.3131 21.3347 19.9128 19.8249 19.9128C18.3152 19.9128 16.8672 19.3131 15.7997 18.2455C14.7321 17.1779 14.1323 15.73 14.1323 14.2202ZM8.43974 29.7148C8.43974 25.3505 11.9798 21.8104 16.3442 21.8104H23.3057C27.6701 21.8104 31.2101 25.3505 31.2101 29.7148C31.2101 30.5865 30.5045 31.298 29.6269 31.298H10.023C9.15132 31.298 8.43974 30.5924 8.43974 29.7148Z" fill="white" fill-opacity="0.5"/>
</g>
<defs>
<clipPath id="clip0_6381_5792">
<rect width="37.9507" height="30.3605" fill="white" transform="translate(0.849609 0.9375)"/>
</clipPath>
</defs>
</svg>
