<svg width="17" height="17" viewBox="0 0 17 17" fill="none" xmlns="http://www.w3.org/2000/svg">
<path d="M7.02165 0.616995C6.48113 0.44217 5.89601 0.465615 5.37121 0.683126C4.84641 0.900637 4.41625 1.29799 4.15789 1.80392L3.51583 3.05936C3.43953 3.20882 3.31798 3.33038 3.16851 3.40667L1.91228 4.04873C1.40634 4.3071 1.00899 4.73725 0.791483 5.26205C0.573972 5.78685 0.550527 6.37197 0.725352 6.91249L1.16029 8.25476C1.21193 8.41425 1.21193 8.58597 1.16029 8.74546L0.726149 10.0877C0.551324 10.6282 0.574769 11.2134 0.79228 11.7382C1.00979 12.263 1.40714 12.6931 1.91308 12.9515L3.16851 13.5935C3.31798 13.6698 3.43953 13.7914 3.51583 13.9409L4.15789 15.1971C4.41625 15.703 4.84641 16.1004 5.37121 16.3179C5.89601 16.5354 6.48113 16.5588 7.02165 16.384L8.36391 15.9491C8.52341 15.8974 8.69512 15.8974 8.85462 15.9491L10.1969 16.3832C10.7373 16.5581 11.3224 16.5348 11.8471 16.3174C12.3719 16.1001 12.8021 15.7029 13.0606 15.1971L13.7027 13.9409C13.779 13.7914 13.9006 13.6698 14.05 13.5935L15.3062 12.9523C15.8124 12.6939 16.2098 12.2636 16.4274 11.7386C16.6449 11.2137 16.6682 10.6284 16.4932 10.0877L16.0582 8.74546C16.0066 8.58597 16.0066 8.41425 16.0582 8.25476L16.4924 6.91249C16.6673 6.37207 16.6439 5.78701 16.4266 5.26223C16.2092 4.73744 15.812 4.30723 15.3062 4.04873L14.05 3.40667C13.9006 3.33038 13.779 3.20882 13.7027 3.05936L13.0614 1.80313C12.803 1.29702 12.3728 0.899541 11.8478 0.682018C11.3228 0.464495 10.7375 0.441159 10.1969 0.616198L8.85462 1.05114C8.69512 1.10277 8.52341 1.10277 8.36391 1.05114L7.02165 0.616995ZM4.4351 8.30654L5.56149 7.18015L7.81426 9.43372L12.3206 4.92738L13.4478 6.05376L7.81426 11.6857L4.4351 8.30654Z" fill="#E8BF3D"/>
</svg>
