<svg width="47" height="30" viewBox="0 0 47 30" fill="none" xmlns="http://www.w3.org/2000/svg">
<path d="M45.6666 6.20226C45.2112 5.89408 44.6032 5.88781 44.1426 6.18337L36.4068 11.0549C36.1094 11.2449 35.9015 11.5404 35.833 11.8763C35.7619 12.2108 35.8356 12.5593 36.0357 12.8436C36.4805 13.4775 36.7148 14.2171 36.7148 14.9832C36.7148 17.1139 34.9012 18.8472 32.6718 18.8472C30.4425 18.8472 28.6289 17.1139 28.6289 14.9832C28.6289 13.7303 29.2764 12.5492 30.3582 11.8222C30.9662 11.4146 31.1136 10.6121 30.6872 10.0298L24.3411 1.36461C23.841 0.67534 22.6355 0.67534 22.1353 1.36461L15.7893 10.0298C15.3629 10.6122 15.5103 11.4147 16.1183 11.8223C17.2001 12.5493 17.8476 13.7304 17.8476 14.9833C17.8476 17.114 16.034 18.8473 13.8047 18.8473C11.5753 18.8473 9.76169 17.114 9.76169 14.9833C9.76169 14.2172 9.99592 13.4776 10.4408 12.8437C10.6409 12.5594 10.7146 12.211 10.6435 11.8764C10.5751 11.5405 10.3672 11.2449 10.0697 11.055L2.33395 6.18345C1.87072 5.8879 1.26526 5.89416 0.809935 6.20235C0.354607 6.50924 0.144013 7.05141 0.27824 7.56714L5.75826 28.1756C5.92671 28.8246 6.58473 29.2585 7.28749 29.134C17.874 27.4485 28.6026 27.4485 39.189 29.134C39.2627 29.1466 39.3391 29.1516 39.4101 29.1516C40.0182 29.1516 40.5656 28.7566 40.7183 28.1756L46.1984 7.56714C46.3325 7.05133 46.122 6.50915 45.6666 6.20226Z" fill="url(#paint0_linear_6708_6531)"/>
<defs>
<linearGradient id="paint0_linear_6708_6531" x1="23.2383" y1="29.1552" x2="23.2383" y2="0.847676" gradientUnits="userSpaceOnUse">
<stop stop-color="#B3B3B3" stop-opacity="0.55"/>
<stop offset="1" stop-color="#F2E8FC"/>
</linearGradient>
</defs>
</svg>
