<svg width="17" height="13" viewBox="0 0 17 13" fill="none" xmlns="http://www.w3.org/2000/svg">
<path d="M13.6892 1.34888C12.6518 0.872703 11.5571 0.533147 10.4324 0.338716C10.4222 0.336825 10.4117 0.338204 10.4023 0.342656C10.3929 0.347108 10.3851 0.354407 10.3801 0.363516C10.2395 0.613596 10.0836 0.939997 9.97459 1.19648C8.74475 1.01232 7.5213 1.01232 6.31674 1.19648C6.20762 0.934237 6.04618 0.613596 5.9049 0.363516C5.89967 0.354594 5.89187 0.347455 5.88252 0.343031C5.87318 0.338607 5.86271 0.337103 5.8525 0.338716C4.7277 0.532754 3.63294 0.872325 2.59577 1.34888C2.58689 1.35265 2.5794 1.35908 2.57433 1.36728C0.500084 4.46617 -0.0680781 7.48889 0.210643 10.4742C0.211418 10.4815 0.21366 10.4886 0.217234 10.495C0.220807 10.5014 0.22564 10.5071 0.231443 10.5116C1.59993 11.5167 2.92561 12.1268 4.22665 12.5312C4.23677 12.5342 4.24758 12.5341 4.25761 12.5308C4.26765 12.5275 4.27644 12.5212 4.28281 12.5128C4.59057 12.0925 4.8649 11.6494 5.10018 11.1834C5.10342 11.177 5.10527 11.17 5.1056 11.1629C5.10594 11.1557 5.10476 11.1486 5.10214 11.1419C5.09951 11.1352 5.09551 11.1292 5.09039 11.1242C5.08526 11.1192 5.07914 11.1154 5.07242 11.1129C4.63721 10.9478 4.22289 10.7466 3.82433 10.518C3.81707 10.5137 3.81098 10.5077 3.80658 10.5006C3.80219 10.4934 3.79963 10.4852 3.79913 10.4768C3.79863 10.4684 3.80021 10.46 3.80373 10.4523C3.80724 10.4447 3.81259 10.438 3.81929 10.4329C3.90337 10.37 3.98601 10.3053 4.06713 10.2387C4.07423 10.2328 4.08284 10.229 4.09197 10.2278C4.1011 10.2265 4.1104 10.2279 4.11881 10.2316C6.73738 11.4271 9.57219 11.4271 12.1598 10.2316C12.1682 10.2276 12.1776 10.2261 12.1869 10.2272C12.1962 10.2284 12.205 10.2321 12.2122 10.238C12.2934 10.305 12.3763 10.37 12.4607 10.4329C12.4674 10.438 12.4728 10.4446 12.4764 10.4522C12.4799 10.4598 12.4816 10.4682 12.4811 10.4766C12.4807 10.485 12.4782 10.4932 12.4739 10.5004C12.4695 10.5076 12.4635 10.5137 12.4563 10.518C12.0575 10.7509 11.6398 10.9497 11.2076 11.1123C11.2008 11.1148 11.1947 11.1188 11.1897 11.1239C11.1846 11.1289 11.1806 11.135 11.1781 11.1418C11.1755 11.1485 11.1744 11.1556 11.1748 11.1628C11.1752 11.17 11.1771 11.177 11.1804 11.1834C11.4198 11.6457 11.6927 12.0898 11.9971 12.5122C12.0033 12.5208 12.012 12.5273 12.0221 12.5307C12.0322 12.5341 12.0431 12.5343 12.0532 12.5312C13.3606 12.1268 14.6863 11.5167 16.0548 10.5116C16.0607 10.5073 16.0656 10.5018 16.0692 10.4954C16.0728 10.4891 16.075 10.4821 16.0756 10.4748C16.4092 7.02353 15.5168 4.02552 13.71 1.36792C13.7055 1.35928 13.6982 1.35253 13.6892 1.34888ZM5.49122 8.6565C4.70281 8.6565 4.05321 7.93273 4.05321 7.04385C4.05321 6.15497 4.69025 5.43121 5.49122 5.43121C6.29842 5.43121 6.9417 6.16137 6.92906 7.04385C6.92906 7.93273 6.29218 8.6565 5.49122 8.6565ZM10.8077 8.6565C10.0193 8.6565 9.36979 7.93273 9.36979 7.04385C9.36979 6.15497 10.0067 5.43121 10.8077 5.43121C11.6149 5.43121 12.2582 6.16137 12.2456 7.04385C12.2456 7.93273 11.6149 8.6565 10.8077 8.6565Z" fill="#5865F2"/>
</svg>
