<svg width="53" height="53" viewBox="0 0 53 53" fill="none" xmlns="http://www.w3.org/2000/svg">
<g filter="url(#filter0_d_6709_9275)">
<rect x="4" width="45" height="45" rx="22.5" fill="white"/>
<path d="M26.5 7.5C23.5333 7.5 20.6332 8.37973 18.1665 10.028C15.6997 11.6762 13.7771 14.0189 12.6418 16.7597C11.5065 19.5006 11.2094 22.5166 11.7882 25.4264C12.367 28.3361 13.7956 31.0088 15.8934 33.1066C17.9912 35.2044 20.6639 36.633 23.5736 37.2118C26.4834 37.7906 29.4994 37.4935 32.2403 36.3582C34.9811 35.2229 37.3238 33.3003 38.972 30.8335C40.6203 28.3668 41.5 25.4667 41.5 22.5C41.4957 18.5231 39.914 14.7103 37.1019 11.8981C34.2897 9.08603 30.4769 7.5043 26.5 7.5V7.5ZM37.3087 16.25H33.2825C32.3812 14.1612 31.1945 12.2076 29.7563 10.445C32.9394 11.3112 35.6529 13.3968 37.3087 16.25ZM32.125 22.5C32.1147 23.7727 31.9142 25.0367 31.53 26.25H21.47C21.0858 25.0367 20.8853 23.7727 20.875 22.5C20.8853 21.2273 21.0858 19.9633 21.47 18.75H31.53C31.9142 19.9633 32.1147 21.2273 32.125 22.5ZM22.4725 28.75H30.5275C29.4665 30.8447 28.1102 32.776 26.5 34.485C24.8892 32.7765 23.5328 30.845 22.4725 28.75ZM22.4725 16.25C23.5335 14.1553 24.8898 12.2239 26.5 10.515C28.1108 12.2235 29.4672 14.1549 30.5275 16.25H22.4725ZM23.25 10.445C21.8096 12.2072 20.6207 14.1609 19.7175 16.25H15.6913C17.3486 13.3955 20.0646 11.3097 23.25 10.445ZM14.5763 18.75H18.875C18.551 19.9739 18.383 21.2339 18.375 22.5C18.383 23.7661 18.551 25.0261 18.875 26.25H14.5763C13.8079 23.809 13.8079 21.191 14.5763 18.75ZM15.6913 28.75H19.7175C20.6207 30.8391 21.8096 32.7928 23.25 34.555C20.0646 33.6903 17.3486 31.6045 15.6913 28.75ZM29.7563 34.555C31.1945 32.7924 32.3812 30.8388 33.2825 28.75H37.3087C35.6529 31.6032 32.9394 33.6888 29.7563 34.555ZM38.4237 26.25H34.125C34.4491 25.0261 34.6171 23.7661 34.625 22.5C34.6171 21.2339 34.4491 19.9739 34.125 18.75H38.4212C39.1896 21.191 39.1896 23.809 38.4212 26.25H38.4237Z" fill="#3A3142"/>
</g>
<defs>
<filter id="filter0_d_6709_9275" x="0" y="0" width="53" height="53" filterUnits="userSpaceOnUse" color-interpolation-filters="sRGB">
<feFlood flood-opacity="0" result="BackgroundImageFix"/>
<feColorMatrix in="SourceAlpha" type="matrix" values="0 0 0 0 0 0 0 0 0 0 0 0 0 0 0 0 0 0 127 0" result="hardAlpha"/>
<feOffset dy="4"/>
<feGaussianBlur stdDeviation="2"/>
<feComposite in2="hardAlpha" operator="out"/>
<feColorMatrix type="matrix" values="0 0 0 0 0 0 0 0 0 0 0 0 0 0 0 0 0 0 0.25 0"/>
<feBlend mode="normal" in2="BackgroundImageFix" result="effect1_dropShadow_6709_9275"/>
<feBlend mode="normal" in="SourceGraphic" in2="effect1_dropShadow_6709_9275" result="shape"/>
</filter>
</defs>
</svg>
