<svg width="33" height="33" viewBox="0 0 33 33" fill="none" xmlns="http://www.w3.org/2000/svg">
<path d="M4.60008 8.43164C4.60008 8.43164 2.98758 8.55914 2.77258 8.92164C2.55508 9.28414 2.54258 9.84164 2.54258 10.4541C2.54258 11.0691 2.51758 12.4791 2.51758 12.4791L2.90258 13.3066C2.90258 13.3066 2.97508 23.8541 2.97508 24.1816C2.97508 24.5066 2.97508 24.9041 3.44508 25.1566C3.91508 25.4091 15.8601 31.1791 16.2326 31.3341C16.7951 31.5666 17.0626 31.4791 17.0626 31.4791L30.3351 9.28164C30.3351 9.28164 30.2926 8.67414 29.7401 8.52914C29.4226 8.44914 4.60008 8.43164 4.60008 8.43164Z" fill="#F5B03E"/>
<path d="M16.9197 15.7293C16.7172 16.2868 16.8096 22.0518 16.8446 26.2443C16.8796 30.4343 16.7371 31.3018 16.8446 31.4468C16.9521 31.5918 17.2447 31.4518 18.0722 31.0843C19.6097 30.4043 26.9947 26.7493 27.5372 26.4243C28.0797 26.0993 29.4047 25.4268 29.6222 25.0643C29.8397 24.7018 29.9572 21.3293 30.0297 18.6218C30.1022 15.9118 30.1747 13.7443 30.1747 13.7443L30.4997 12.7693C30.4997 12.7693 30.4297 10.1343 30.4172 9.84432C30.3947 9.36432 30.3422 9.11682 30.2197 9.17682C30.0447 9.25932 28.5847 10.4568 24.7197 12.3368C22.2922 13.5143 17.0597 15.3443 16.9197 15.7293Z" fill="#E07F14"/>
<path d="M16.9546 3.30185C15.8721 3.25185 12.9096 4.96435 10.0546 5.90185C7.19957 6.83935 2.88957 8.72435 2.85207 8.83435C2.81707 8.94185 4.58707 9.73435 5.71707 10.2769C7.05957 10.9194 12.1846 13.3469 13.1221 13.7444C14.0621 14.1419 16.3021 15.0719 16.6621 15.0444C17.1671 15.0094 21.9371 13.1294 24.3571 11.9744C26.7771 10.8194 29.8021 9.02935 29.8421 8.59435C29.8596 8.39935 25.3921 6.73185 23.1646 5.72435C18.8646 3.77685 17.7471 3.33935 16.9546 3.30185Z" fill="#FDD717"/>
<path d="M2.52977 12.9421C2.56727 13.4121 2.82477 13.5796 3.47977 13.8646C4.13477 14.1496 16.5173 20.5821 16.8023 20.5821C17.0873 20.5821 17.1723 19.5621 16.8598 19.5896C16.6898 19.6046 12.6223 17.6721 8.82226 15.7421C5.59727 14.1071 2.50977 12.4746 2.50977 12.4746L2.52977 12.9421Z" fill="#E37D14"/>
<path d="M30.5027 12.748C30.5027 12.748 17.2802 19.473 17.1502 19.538C17.0202 19.603 16.8127 19.5805 16.8127 19.5805L16.8027 20.583C16.8027 20.583 16.9252 20.6105 17.0627 20.568C17.1427 20.543 30.1202 13.8255 30.1777 13.8055C30.2352 13.7855 30.4852 13.6355 30.5377 13.318C30.5827 13.063 30.5027 12.748 30.5027 12.748Z" fill="#BA5E0D"/>
<path d="M7.71516 24.8552L10.3027 28.7052L11.4352 29.0927C11.4352 29.0927 11.5277 24.8927 11.5652 21.7802C11.6177 17.2327 11.5977 13.0852 11.6627 12.8502C11.7702 12.4527 16.8027 10.8202 16.8027 10.8202C16.8027 10.8202 22.4877 12.6027 22.6677 13.0002C22.7477 13.1752 22.6852 16.1202 22.6677 19.5527C22.6452 23.8877 22.6527 28.8927 22.6527 28.8927C22.6527 28.8927 23.2402 28.8902 23.3102 28.6727C23.3827 28.4552 23.6727 26.7777 23.6727 26.7777L25.8777 12.0802L26.9977 10.6352L25.4427 7.67516L19.0627 4.53516L16.8702 5.02766L14.4977 4.66516L6.97266 10.0727L7.85016 11.8527L10.0027 12.9502L7.71516 24.8552Z" fill="#AF0F1B"/>
<path d="M23.3209 12.8476C23.1834 13.1501 23.2634 28.7376 23.2634 28.7376C23.2634 28.7376 23.9509 28.3576 24.8359 27.9326C25.7159 27.5101 26.3484 27.2476 26.4034 27.0276C26.4584 26.8076 26.5559 11.3926 26.5559 11.3926L23.3209 12.8476Z" fill="#DC0D28"/>
<path d="M10.8377 12.525C10.9202 12.615 10.7852 28.79 10.6177 28.8275C10.4852 28.86 7.47266 27.515 7.47266 27.3775C7.47266 27.24 7.71516 11.7825 7.71516 11.7825C7.71516 11.7825 10.5927 12.25 10.8377 12.525ZM16.8077 4.0625C15.9752 4.0625 15.0552 4.3 14.7877 4.9975C14.5202 5.695 14.4602 6.7325 14.4602 7.5075C14.4602 8.25 14.3402 10.15 16.6277 10.12C18.9152 10.09 18.9827 9.2425 19.0177 7.3725C19.0477 5.8125 18.8402 5.055 18.6327 4.73C18.4477 4.4375 17.8327 4.0625 16.8077 4.0625Z" fill="#FF2A23"/>
<path d="M15.4846 7.92168C16.0046 7.95168 16.2271 6.80918 16.6271 6.18418C17.0271 5.56168 17.4446 5.14418 17.2946 4.81918C17.1721 4.54918 16.0846 4.46168 15.4971 5.27918C15.0846 5.85668 15.0121 7.89418 15.4846 7.92168Z" fill="#FCC9D2"/>
<path d="M18.832 4.60405C18.832 4.60405 19.5695 5.35405 19.762 6.82405C19.9545 8.29405 19.732 9.43655 19.732 9.43655C19.732 9.43655 23.397 9.32655 24.662 9.56905C25.9095 9.81155 26.3445 10.3615 26.3445 10.7615C26.3445 11.1615 25.5245 11.484 24.692 11.424C23.8595 11.364 23.297 11.319 23.192 11.529C23.087 11.739 23.237 12.064 24.3945 12.1515C25.552 12.2415 26.8895 12.0765 27.3045 10.6365C27.7195 9.19655 27.7345 6.70155 27.587 4.90405C27.4395 3.10655 27.1145 2.07905 26.3095 1.68905C25.462 1.28155 23.3395 1.21405 21.3345 2.34155C19.3295 3.46905 18.832 4.60405 18.832 4.60405Z" fill="#FF2A23"/>
<path d="M22.9842 2.89595C22.7242 2.56095 21.8867 2.57095 21.4392 3.08845C20.9642 3.63845 20.8592 5.73095 21.4692 5.85095C22.1592 5.98595 22.0342 4.85595 22.5392 4.15845C23.0342 3.47595 23.2367 3.22345 22.9842 2.89595Z" fill="#FCC9D2"/>
<path d="M14.5943 4.67815C14.5943 4.67815 11.7868 1.40565 8.57931 1.45565C6.64931 1.48565 6.15931 2.59815 6.05431 3.05815C5.94931 3.51815 5.14931 8.09315 6.21681 10.5707C7.28431 13.0482 9.49931 12.4057 9.84681 12.3257C10.2918 12.2207 11.2393 11.8957 11.1493 11.5532C11.0593 11.2107 7.91181 12.4432 7.88181 11.0332C7.85181 9.62315 10.1093 9.47315 11.1493 9.44315C12.1893 9.41315 13.9718 9.65065 13.9718 9.65065C13.9718 9.65065 13.6593 7.94315 13.8668 6.72565C14.0743 5.50815 14.5943 4.67815 14.5943 4.67815Z" fill="#FF2A23"/>
<path d="M7.71977 2.6421C7.31977 3.0571 7.15477 5.4496 7.40727 6.6371C7.65977 7.8246 7.88227 8.3296 8.40227 8.2271C8.83727 8.1396 9.09977 5.8096 9.30727 4.9896C9.52977 4.1146 10.0798 3.1846 9.85727 2.7771C9.51727 2.1521 8.13727 2.2096 7.71977 2.6421Z" fill="#FCC9D2"/>
</svg>
