<svg width="25" height="24" viewBox="0 0 25 24" fill="none" xmlns="http://www.w3.org/2000/svg">
<g clip-path="url(#clip0_6489_10189)">
<path d="M25.6283 12.2788L22.4966 10.4615C22.7709 10.2215 23.0338 9.9129 23.2281 9.57001C24.1767 7.93562 23.6167 5.83261 21.9709 4.88397C20.9879 4.31251 19.8336 4.31251 18.8621 4.72396L18.8735 4.71253L17.8677 5.15828L17.742 4.06106L17.7306 4.07249C17.6277 3.03242 17.022 2.02663 16.039 1.45516C15.2484 1.00341 14.3113 0.882048 13.4317 1.11748C12.552 1.35291 11.8009 1.9261 11.3416 2.71239C11.1473 3.05528 11.0215 3.43244 10.953 3.79818L7.80988 1.99234C6.71266 1.36373 5.31828 1.72947 4.68966 2.82669L2.97526 5.79832C2.89964 5.92782 2.85057 6.07108 2.83092 6.21974C2.81126 6.3684 2.82141 6.51949 2.86078 6.66419C2.90015 6.80889 2.96794 6.9443 3.0602 7.06251C3.15246 7.18073 3.26735 7.27938 3.39815 7.35272L5.37543 8.49565L10.1986 11.2844H2.76953V22.7138C2.76953 23.32 3.01036 23.9015 3.43905 24.3301C3.86773 24.7588 4.44915 24.9997 5.0554 24.9997H23.3424C24.6111 24.9997 25.6283 23.9825 25.6283 22.7138V16.8505L26.4626 15.399C27.0912 14.3018 26.7255 12.9074 25.6283 12.2788ZM19.2735 7.28414C19.5821 6.71267 20.2908 6.55266 20.8279 6.86126C21.3765 7.18128 21.5708 7.85561 21.2508 8.42708C20.9308 8.99855 20.2336 9.15856 19.685 8.84996C19.1478 8.52994 18.9535 7.85561 19.2735 7.28414ZM16.5648 9.68431L24.4853 14.2561L23.3424 16.2333L15.4218 11.6616L16.5648 9.68431ZM13.056 22.7138H5.0554V13.5703H13.056V22.7138ZM13.4446 10.5187L5.52401 5.94691L6.66695 3.96962L14.5875 8.54137L13.4446 10.5187ZM13.7532 5.42115C13.2045 5.10113 13.0217 4.4268 13.3303 3.85533C13.6274 3.28386 14.3475 3.12385 14.8961 3.43244C15.4447 3.75247 15.6276 4.4268 15.3075 4.99827C14.999 5.56974 14.3018 5.72975 13.7532 5.42115ZM15.3418 22.7138V14.2561L23.3424 18.8735V22.7138H15.3418Z" fill="#ADB9C7"/>
</g>
<defs>
<clipPath id="clip0_6489_10189">
<rect width="24" height="24" fill="white" transform="translate(0.769531)"/>
</clipPath>
</defs>
</svg>
