<svg width="14" height="14" viewBox="0 0 14 14" fill="none" xmlns="http://www.w3.org/2000/svg">
<path d="M12.5732 0.339844H7.84851C7.49491 0.339919 7.15583 0.480445 6.90584 0.73051L0.968507 6.66784C0.718546 6.91788 0.578125 7.25696 0.578125 7.61051C0.578125 7.96406 0.718546 8.30314 0.968507 8.55318L5.69251 13.2772C5.94254 13.5271 6.28162 13.6676 6.63517 13.6676C6.98873 13.6676 7.3278 13.5271 7.57784 13.2772L13.5152 7.33984C13.7658 7.09051 13.9065 6.75118 13.9065 6.39784V1.67318C13.9065 1.31956 13.766 0.980417 13.516 0.730368C13.2659 0.48032 12.9268 0.339844 12.5732 0.339844ZM10.5778 5.00184C10.4003 5.00586 10.2237 4.97436 10.0585 4.9092C9.89327 4.84403 9.74274 4.74652 9.61572 4.62238C9.48871 4.49823 9.38778 4.34997 9.31886 4.18628C9.24993 4.0226 9.21441 3.84679 9.21436 3.66918C9.21432 3.49158 9.24976 3.31576 9.3186 3.15204C9.38744 2.98832 9.4883 2.84 9.61525 2.71579C9.7422 2.59159 9.89268 2.494 10.0579 2.42875C10.2231 2.3635 10.3996 2.33192 10.5772 2.33584C10.9255 2.34355 11.2571 2.48733 11.5008 2.7364C11.7444 2.98548 11.8809 3.32006 11.881 3.66852C11.8811 4.01698 11.7448 4.35162 11.5012 4.60082C11.2577 4.85002 10.9262 4.99397 10.5778 5.00184Z" fill="white"/>
</svg>
