<svg width="47" height="28" viewBox="0 0 47 28" fill="none" xmlns="http://www.w3.org/2000/svg">
<path d="M45.6666 5.36685C45.2112 5.06449 44.6032 5.05834 44.1426 5.34832L36.4068 10.128C36.1094 10.3143 35.9015 10.6043 35.833 10.9338C35.7619 11.262 35.8356 11.6039 36.0357 11.8829C36.4805 12.5049 36.7148 13.2305 36.7148 13.9821C36.7148 16.0726 34.9012 17.7732 32.6718 17.7732C30.4425 17.7732 28.6289 16.0726 28.6289 13.9821C28.6289 12.7529 29.2764 11.5941 30.3582 10.8807C30.9662 10.4809 31.1136 9.69351 30.6872 9.12213L24.3411 0.620477C23.841 -0.0557839 22.6355 -0.0557839 22.1353 0.620477L15.7893 9.12222C15.3629 9.69359 15.5103 10.481 16.1183 10.8808C17.2001 11.5941 17.8476 12.753 17.8476 13.9822C17.8476 16.0727 16.034 17.7733 13.8047 17.7733C11.5753 17.7733 9.76169 16.0727 9.76169 13.9822C9.76169 13.2306 9.99592 12.505 10.4408 11.8829C10.6409 11.604 10.7146 11.2622 10.6435 10.9339C10.5751 10.6044 10.3672 10.3143 10.0697 10.1281L2.33395 5.3484C1.87072 5.05842 1.26526 5.06457 0.809935 5.36694C0.354607 5.66804 0.144013 6.19998 0.27824 6.70598L5.75826 26.9256C5.92671 27.5624 6.58473 27.9881 7.28749 27.8659C17.874 26.2122 28.6026 26.2122 39.189 27.8659C39.2627 27.8782 39.3391 27.8832 39.4101 27.8832C40.0182 27.8832 40.5656 27.4957 40.7183 26.9256L46.1984 6.70598C46.3325 6.1999 46.122 5.66796 45.6666 5.36685Z" fill="url(#paint0_linear_3506_8347)"/>
<path d="M25.9485 9.10689V23.6523H22.8732V12.0259H22.788L19.457 14.114V11.3867L23.0579 9.10689H25.9485Z" fill="white"/>
<defs>
<linearGradient id="paint0_linear_3506_8347" x1="23.2383" y1="27.8867" x2="23.2383" y2="0.113301" gradientUnits="userSpaceOnUse">
<stop stop-color="#FD5900"/>
<stop offset="1" stop-color="#FFDE00"/>
</linearGradient>
</defs>
</svg>
