<svg width="45" height="45" viewBox="0 0 45 45" fill="none" xmlns="http://www.w3.org/2000/svg">
<g clip-path="url(#clip0_6709_9264)">
<path d="M22.5 0C16.534 0 10.807 2.37199 6.5918 6.59004C2.37221 10.8098 0.00116884 16.5325 0 22.5C0 28.465 2.37305 34.1919 6.5918 38.41C10.807 42.628 16.534 45 22.5 45C28.466 45 34.193 42.628 38.4082 38.41C42.627 34.1919 45 28.465 45 22.5C45 16.535 42.627 10.8081 38.4082 6.59004C34.193 2.37199 28.466 0 22.5 0Z" fill="url(#paint0_linear_6709_9264)"/>
<path d="M10.1873 22.2606C16.7474 19.4031 21.1209 17.5191 23.3076 16.6089C29.5584 14.0098 30.8556 13.5584 31.7029 13.5431C31.8892 13.5401 32.3041 13.5862 32.5748 13.805C32.7998 13.9896 32.863 14.2392 32.8947 14.4144C32.9228 14.5895 32.9615 14.9886 32.9298 15.3C32.5923 18.8578 31.1263 27.4915 30.381 31.4765C30.0681 33.1626 29.4459 33.7279 28.8447 33.7831C27.5369 33.9033 26.5455 32.9196 25.2798 32.0903C23.3006 30.792 22.1826 29.9841 20.2595 28.7174C18.0377 27.2535 19.4791 26.4488 20.7447 25.1339C21.0752 24.7898 26.8338 19.5532 26.9427 19.0783C26.9568 19.0189 26.9709 18.7974 26.8373 18.6807C26.7072 18.5636 26.5138 18.6037 26.3732 18.6353C26.1728 18.6803 23.0123 20.7714 16.881 24.9082C15.9845 25.5249 15.1724 25.8255 14.4412 25.8096C13.6396 25.7924 12.0927 25.3554 10.9431 24.9821C9.53688 24.524 8.4154 24.2818 8.51383 23.5037C8.56305 23.0987 9.12204 22.6843 10.1873 22.2606Z" fill="white"/>
</g>
<defs>
<linearGradient id="paint0_linear_6709_9264" x1="2250" y1="0" x2="2250" y2="4500" gradientUnits="userSpaceOnUse">
<stop stop-color="#2AABEE"/>
<stop offset="1" stop-color="#229ED9"/>
</linearGradient>
<clipPath id="clip0_6709_9264">
<rect width="45" height="45" fill="white"/>
</clipPath>
</defs>
</svg>
