<svg width="15" height="16" viewBox="0 0 15 16" fill="none" xmlns="http://www.w3.org/2000/svg">
<path d="M4.9911 6.95497C4.60802 6.1903 3.81713 5.66536 2.90365 5.66536C1.61498 5.66536 0.570312 6.71003 0.570312 7.9987C0.570312 9.28736 1.61498 10.332 2.90365 10.332C3.81713 10.332 4.60802 9.8071 4.9911 9.04242M4.9911 6.95497C5.14843 7.26903 5.23698 7.62352 5.23698 7.9987C5.23698 8.37387 5.14843 8.72837 4.9911 9.04242M4.9911 6.95497L9.48286 4.70909M4.9911 9.04242L9.48286 11.2883M9.48286 4.70909C9.86594 5.47376 10.6568 5.9987 11.5703 5.9987C12.859 5.9987 13.9036 4.95403 13.9036 3.66536C13.9036 2.3767 12.859 1.33203 11.5703 1.33203C10.2816 1.33203 9.23698 2.3767 9.23698 3.66536C9.23698 4.04054 9.32552 4.39504 9.48286 4.70909ZM9.48286 11.2883C9.32552 11.6024 9.23698 11.9569 9.23698 12.332C9.23698 13.6207 10.2816 14.6654 11.5703 14.6654C12.859 14.6654 13.9036 13.6207 13.9036 12.332C13.9036 11.0434 12.859 9.9987 11.5703 9.9987C10.6568 9.9987 9.86594 10.5236 9.48286 11.2883Z" stroke="#F6F6F7" stroke-linecap="round"/>
</svg>
