<svg width="15" height="16" viewBox="0 0 15 16" fill="none" xmlns="http://www.w3.org/2000/svg">
<path d="M2.40365 7.33203H13.0703M2.40365 7.33203C1.66727 7.33203 1.07031 6.73508 1.07031 5.9987V5.33203C1.07031 4.59565 1.66727 3.9987 2.40365 3.9987H13.0703C13.8067 3.9987 14.4036 4.59565 14.4036 5.33203V5.9987C14.4036 6.73508 13.8067 7.33203 13.0703 7.33203M2.40365 7.33203L2.40365 13.332C2.40365 14.0684 3.0006 14.6654 3.73698 14.6654H11.737C12.4734 14.6654 13.0703 14.0684 13.0703 13.332V7.33203M7.73698 3.9987H10.4036C11.14 3.9987 11.737 3.40174 11.737 2.66536C11.737 1.92899 11.14 1.33203 10.4036 1.33203C8.93089 1.33203 7.73698 2.52594 7.73698 3.9987ZM7.73698 3.9987H5.07031C4.33393 3.9987 3.73698 3.40174 3.73698 2.66536C3.73698 1.92899 4.33393 1.33203 5.07031 1.33203C6.54307 1.33203 7.73698 2.52594 7.73698 3.9987ZM7.73698 3.9987V14.6654" stroke="white" stroke-linecap="round"/>
</svg>
