<svg width="45" height="45" viewBox="0 0 45 45" fill="none" xmlns="http://www.w3.org/2000/svg">
<g clip-path="url(#clip0_6709_9267)">
<path d="M34.4531 0H10.5469C4.722 0 0 4.722 0 10.5469V34.4531C0 40.278 4.722 45 10.5469 45H34.4531C40.278 45 45 40.278 45 34.4531V10.5469C45 4.722 40.278 0 34.4531 0Z" fill="#5865F2"/>
<mask id="mask0_6709_9267" style="mask-type:luminance" maskUnits="userSpaceOnUse" x="4" y="8" width="37" height="29">
<path d="M4.92188 8.96484H40.0781V36.1986H4.92188V8.96484Z" fill="white"/>
</mask>
<g mask="url(#mask0_6709_9267)">
<path d="M34.0111 12.1899C31.9365 11.2376 29.7471 10.5585 27.4977 10.1696C27.4772 10.1658 27.4561 10.1686 27.4373 10.1775C27.4185 10.1864 27.403 10.201 27.393 10.2192C27.1118 10.7194 26.8001 11.3722 26.582 11.8851C24.1223 11.5168 21.6754 11.5168 19.2663 11.8851C19.048 11.3607 18.7252 10.7194 18.4426 10.2192C18.4321 10.2014 18.4166 10.1871 18.3979 10.1782C18.3792 10.1694 18.3582 10.1664 18.3378 10.1696C16.0882 10.5577 13.8987 11.2368 11.8244 12.1899C11.8066 12.1975 11.7916 12.2103 11.7815 12.2267C7.63298 18.4245 6.49666 24.47 7.0541 30.4405C7.05565 30.4552 7.06013 30.4694 7.06728 30.4822C7.07443 30.4951 7.08409 30.5064 7.0957 30.5154C9.83267 32.5255 12.484 33.7458 15.0861 34.5546C15.1064 34.5607 15.128 34.5604 15.148 34.5538C15.1681 34.5472 15.1857 34.5347 15.1984 34.5178C15.814 33.6772 16.3626 32.7909 16.8332 31.8589C16.8396 31.8462 16.8433 31.8322 16.844 31.8179C16.8447 31.8036 16.8423 31.7893 16.8371 31.776C16.8318 31.7627 16.8238 31.7506 16.8136 31.7406C16.8033 31.7306 16.7911 31.7229 16.7776 31.718C15.9072 31.3877 15.0786 30.9853 14.2815 30.5282C14.267 30.5197 14.2548 30.5077 14.246 30.4933C14.2372 30.4789 14.2321 30.4626 14.2311 30.4458C14.2301 30.429 14.2332 30.4122 14.2403 30.3968C14.2473 30.3815 14.258 30.3682 14.2714 30.358C14.4396 30.2323 14.6048 30.1027 14.7671 29.9695C14.7813 29.9578 14.7985 29.9502 14.8168 29.9477C14.835 29.9452 14.8536 29.9479 14.8704 29.9554C20.1076 32.3465 25.7772 32.3465 30.9524 29.9554C30.9693 29.9474 30.9881 29.9444 31.0067 29.9466C31.0252 29.9489 31.0427 29.9564 31.0572 29.9682C31.2196 30.1022 31.3853 30.2322 31.5542 30.358C31.5676 30.3681 31.5784 30.3814 31.5855 30.3966C31.5927 30.4119 31.596 30.4286 31.5951 30.4454C31.5942 30.4623 31.5892 30.4786 31.5806 30.493C31.5719 30.5075 31.5598 30.5196 31.5454 30.5282C30.7478 30.9939 29.9123 31.3915 29.0479 31.7167C29.0345 31.7218 29.0223 31.7297 29.0121 31.7399C29.002 31.7501 28.9941 31.7623 28.989 31.7757C28.9839 31.7891 28.9816 31.8035 28.9824 31.8178C28.9832 31.8322 28.9871 31.8462 28.9937 31.8589C29.4724 32.7836 30.0183 33.6718 30.627 34.5166C30.6394 34.5338 30.6569 34.5468 30.677 34.5536C30.6971 34.5605 30.7189 34.5608 30.7393 34.5546C33.354 33.7458 36.0054 32.5255 38.7425 30.5154C38.7542 30.5068 38.764 30.4958 38.7712 30.4831C38.7783 30.4704 38.7827 30.4563 38.7841 30.4418C39.4513 23.5392 37.6665 17.5432 34.0527 12.228C34.0439 12.2108 34.0291 12.1972 34.0111 12.1899ZM17.6152 26.8052C16.0384 26.8052 14.7392 25.3577 14.7392 23.5799C14.7392 21.8021 16.0133 20.3546 17.6152 20.3546C19.2296 20.3546 20.5162 21.8149 20.4909 23.5799C20.4909 25.3577 19.2172 26.8052 17.6152 26.8052ZM28.2482 26.8052C26.6714 26.8052 25.3724 25.3577 25.3724 23.5799C25.3724 21.8021 26.6463 20.3546 28.2482 20.3546C29.8626 20.3546 31.1492 21.8149 31.1241 23.5799C31.1241 25.3577 29.8626 26.8052 28.2482 26.8052Z" fill="white"/>
</g>
</g>
<defs>
<clipPath id="clip0_6709_9267">
<rect width="45" height="45" rx="22.5" fill="white"/>
</clipPath>
</defs>
</svg>
