<svg width="18" height="14" viewBox="0 0 18 14" fill="none" xmlns="http://www.w3.org/2000/svg">
<path d="M1.97511 6.14966C6.34854 4.24466 9.26417 2.98864 10.722 2.38185C14.8892 0.649112 15.754 0.348175 16.3189 0.337979C16.4431 0.335987 16.7196 0.36669 16.9001 0.512589C17.0501 0.635635 17.0923 0.802042 17.1134 0.918878C17.1321 1.0356 17.1579 1.30161 17.1368 1.50927C16.9118 3.88114 15.9345 9.63692 15.4376 12.2936C15.229 13.4176 14.8142 13.7945 14.4134 13.8313C13.5415 13.9115 12.8806 13.2557 12.0368 12.7028C10.7173 11.8372 9.97198 11.2986 8.68995 10.4542C7.2087 9.47825 8.16964 8.94177 9.01339 8.0652C9.2337 7.83575 13.0728 4.34474 13.1454 4.0281C13.1548 3.98849 13.1642 3.84083 13.0751 3.76302C12.9884 3.68497 12.8595 3.71169 12.7657 3.73278C12.6321 3.76278 10.5251 5.15685 6.43761 7.91474C5.83995 8.32583 5.29854 8.52622 4.81104 8.51567C4.27667 8.50419 3.24542 8.21286 2.47901 7.96395C1.54151 7.65856 0.793857 7.49708 0.859482 6.97841C0.892295 6.70841 1.26495 6.43208 1.97511 6.14966Z" fill="#2AABEE"/>
</svg>
