<svg width="20" height="15" viewBox="0 0 20 15" fill="none" xmlns="http://www.w3.org/2000/svg">
<path d="M0 5.62V11.25C0 12.2446 0.395088 13.1984 1.09835 13.9017C1.80161 14.6049 2.75544 15 3.75 15H16.25C17.2446 15 18.1984 14.6049 18.9017 13.9017C19.6049 13.1984 20 12.2446 20 11.25V5.62L10.5125 9.89C10.3514 9.96244 10.1767 9.99989 10 9.99989C9.82332 9.99989 9.64865 9.96244 9.4875 9.89L0 5.62ZM0.0924999 2.92L10 7.38L19.9075 2.92C19.7193 2.09069 19.2548 1.34998 18.5902 0.819398C17.9256 0.28882 17.1004 -0.00011487 16.25 3.42586e-08H3.75C2.8996 -0.00011487 2.07441 0.28882 1.40982 0.819398C0.745234 1.34998 0.280723 2.09069 0.0924999 2.92Z" fill="white" fill-opacity="0.2"/>
</svg>
