<svg width="26" height="28" viewBox="0 0 26 28" fill="none" xmlns="http://www.w3.org/2000/svg">
<path d="M12.207 14.0846C15.6588 14.0846 18.457 11.1931 18.457 7.6263C18.457 4.05946 15.6588 1.16797 12.207 1.16797C8.75525 1.16797 5.95703 4.05946 5.95703 7.6263C5.95703 11.1931 8.75525 14.0846 12.207 14.0846Z" stroke="#F6F6F7" stroke-width="2"/>
<path d="M18.4571 27.0013H3.78961C3.43508 27.0014 3.0846 26.9235 2.76141 26.773C2.43823 26.6224 2.14973 26.4025 1.91508 26.1279C1.68042 25.8533 1.50497 25.5302 1.40036 25.1802C1.29576 24.8302 1.2644 24.4612 1.30836 24.0976L1.79586 20.0625C1.90923 19.125 2.35013 18.2626 3.03565 17.6375C3.72117 17.0124 4.60408 16.6676 5.51836 16.668H5.95711" stroke="#F6F6F7" stroke-width="2" stroke-linecap="round" stroke-linejoin="round"/>
<path d="M20.957 15.375V23.125" stroke="#F6F6F7" stroke-width="2" stroke-linecap="round" stroke-linejoin="round"/>
<path d="M17.207 19.25H24.707" stroke="#F6F6F7" stroke-width="2" stroke-linecap="round" stroke-linejoin="round"/>
</svg>
