<svg width="16" height="16" viewBox="0 0 16 16" fill="none" xmlns="http://www.w3.org/2000/svg">
<path fill-rule="evenodd" clip-rule="evenodd" d="M12.7644 0.942834L14.7094 2.44252C14.8972 2.61587 15.0024 2.85415 15.0009 3.10255C14.9994 3.35095 14.8913 3.58807 14.7014 3.75936L13.2234 5.46462L8.19341 11.2786C8.10632 11.3758 7.98908 11.4444 7.85841 11.4747L5.25041 12.0431C4.90435 12.0567 4.60593 11.8149 4.56641 11.4889L4.68841 9.05136C4.69745 8.92691 4.74945 8.80873 4.83641 8.71504L9.64941 3.15873L11.3444 1.19957C11.6737 0.7749 12.2931 0.66291 12.7644 0.942834Z" stroke="white" stroke-width="1.5" stroke-linecap="round" stroke-linejoin="round"/>
<path d="M1 14.2428C0.585786 14.2428 0.25 14.5786 0.25 14.9928C0.25 15.407 0.585786 15.7428 1 15.7428V14.2428ZM14.7 15.7428C15.1142 15.7428 15.45 15.407 15.45 14.9928C15.45 14.5786 15.1142 14.2428 14.7 14.2428V15.7428ZM10.34 2.86618C10.1776 2.48511 9.73709 2.30781 9.35603 2.47017C8.97496 2.63253 8.79766 3.07306 8.96001 3.45413L10.34 2.86618ZM13.381 6.20229C13.786 6.1156 14.0441 5.71698 13.9574 5.31193C13.8707 4.90689 13.4721 4.64882 13.067 4.7355L13.381 6.20229ZM1 15.7428H14.7V14.2428H1V15.7428ZM8.96001 3.45413C9.19596 4.00791 9.67779 4.79119 10.3917 5.39258C11.1196 6.00588 12.1424 6.46737 13.381 6.20229L13.067 4.7355C12.4066 4.87684 11.8424 4.65338 11.3581 4.24541C10.8597 3.82554 10.504 3.25124 10.34 2.86618L8.96001 3.45413Z" fill="white"/>
</svg>
