<svg width="15" height="15" viewBox="0 0 15 15" fill="none" xmlns="http://www.w3.org/2000/svg">
<path d="M6.16021 0.479513C5.68638 0.326258 5.17345 0.34681 4.71339 0.537486C4.25334 0.728161 3.87626 1.07649 3.64977 1.52L3.08693 2.62055C3.02004 2.75157 2.91349 2.85813 2.78246 2.92501L1.68122 3.48785C1.2377 3.71435 0.889378 4.09143 0.698703 4.55148C0.508028 5.01153 0.487475 5.52446 0.64073 5.9983L1.02201 7.17496C1.06727 7.31477 1.06727 7.4653 1.02201 7.60512L0.641429 8.78178C0.488173 9.25561 0.508726 9.76854 0.699401 10.2286C0.890076 10.6886 1.2384 11.0657 1.68192 11.2922L2.78246 11.8551C2.91349 11.9219 3.02004 12.0285 3.08693 12.1595L3.64977 13.2608C3.87626 13.7043 4.25334 14.0526 4.71339 14.2433C5.17345 14.434 5.68638 14.4545 6.16021 14.3013L7.33687 13.92C7.47669 13.8747 7.62722 13.8747 7.76703 13.92L8.94369 14.3006C9.41745 14.4539 9.93032 14.4334 10.3904 14.2429C10.8504 14.0523 11.2275 13.7042 11.4541 13.2608L12.017 12.1595C12.0839 12.0285 12.1904 11.9219 12.3214 11.8551L13.4227 11.2929C13.8664 11.0664 14.2148 10.6892 14.4055 10.229C14.5962 9.7688 14.6166 9.25571 14.4632 8.78178L14.0819 7.60512C14.0366 7.4653 14.0366 7.31477 14.0819 7.17496L14.4625 5.9983C14.6158 5.52454 14.5953 5.01167 14.4048 4.55163C14.2143 4.09159 13.8661 3.71446 13.4227 3.48785L12.3214 2.92501C12.1904 2.85813 12.0839 2.75157 12.017 2.62055L11.4548 1.5193C11.2283 1.07564 10.8511 0.7272 10.3909 0.536515C9.93071 0.345829 9.41762 0.325372 8.94369 0.478815L7.76703 0.860095C7.62722 0.905359 7.47669 0.905359 7.33687 0.860095L6.16021 0.479513ZM3.89278 7.22035L4.8802 6.23293L6.85503 8.20846L10.8054 4.2581L11.7935 5.24551L6.85503 10.1826L3.89278 7.22035Z" fill="#3A3142"/>
</svg>
