<svg width="31" height="30" viewBox="0 0 31 30" fill="none" xmlns="http://www.w3.org/2000/svg">
<path d="M12.523 0.219365C11.5095 -0.108431 10.4124 -0.0644718 9.42843 0.343361C8.44443 0.751195 7.6379 1.49623 7.15346 2.44486L5.9496 4.7988C5.80654 5.07905 5.57863 5.30696 5.29838 5.45002L2.94295 6.65387C1.99432 7.13831 1.24929 7.94485 0.841453 8.92885C0.43362 9.91285 0.38966 11.01 0.717456 12.0234L1.53297 14.5402C1.62979 14.8392 1.62979 15.1612 1.53297 15.4602L0.71895 17.977C0.391154 18.9905 0.435113 20.0876 0.842947 21.0716C1.25078 22.0556 1.99581 22.8621 2.94444 23.3465L5.29838 24.5504C5.57863 24.6935 5.80654 24.9214 5.9496 25.2016L7.15346 27.5571C7.6379 28.5057 8.44443 29.2507 9.42843 29.6585C10.4124 30.0664 11.5095 30.1103 12.523 29.7825L15.0398 28.967C15.3388 28.8702 15.6608 28.8702 15.9598 28.967L18.4766 29.781C19.4899 30.109 20.5868 30.0652 21.5708 29.6577C22.5548 29.2501 23.3614 28.5054 23.8461 27.5571L25.05 25.2016C25.193 24.9214 25.421 24.6935 25.7012 24.5504L28.0566 23.348C29.0056 22.8636 29.7509 22.0568 30.1587 21.0724C30.5666 20.0881 30.6103 18.9907 30.2821 17.977L29.4666 15.4602C29.3698 15.1612 29.3698 14.8392 29.4666 14.5402L30.2806 12.0234C30.6085 11.0101 30.5648 9.91315 30.1573 8.92918C29.7497 7.9452 29.005 7.13856 28.0566 6.65387L25.7012 5.45002C25.421 5.30696 25.193 5.07905 25.05 4.7988L23.8476 2.44336C23.3631 1.4944 22.5564 0.74914 21.572 0.341284C20.5877 -0.0665715 19.4902 -0.110326 18.4766 0.217871L15.9598 1.03339C15.6608 1.1302 15.3388 1.1302 15.0398 1.03339L12.523 0.219365ZM7.67324 14.6373L9.78521 12.5253L14.0092 16.7507L22.4586 8.30133L24.572 10.4133L14.0092 20.9732L7.67324 14.6373Z" fill="#3EF9B9"/>
</svg>
