<svg width="63" height="63" viewBox="0 0 63 63" fill="none" xmlns="http://www.w3.org/2000/svg">
<g clip-path="url(#clip0_6883_24076)">
<path d="M48.2344 0H14.7656C6.6108 0 0 6.6108 0 14.7656V48.2344C0 56.3892 6.6108 63 14.7656 63H48.2344C56.3892 63 63 56.3892 63 48.2344V14.7656C63 6.6108 56.3892 0 48.2344 0Z" fill="#5865F2"/>
<mask id="mask0_6883_24076" style="mask-type:luminance" maskUnits="userSpaceOnUse" x="6" y="12" width="51" height="39">
<path d="M6.89062 12.5508H56.1094V50.6781H6.89062V12.5508Z" fill="white"/>
</mask>
<g mask="url(#mask0_6883_24076)">
<path d="M48.5561 15.9459C45.3652 14.4811 41.9977 13.4366 38.5379 12.8385C38.5064 12.8327 38.474 12.8369 38.4451 12.8506C38.4162 12.8643 38.3923 12.8867 38.3769 12.9148C37.9443 13.6841 37.4649 14.6881 37.1295 15.4771C33.3463 14.9106 29.5828 14.9106 25.8773 15.4771C25.5417 14.6704 25.0451 13.6841 24.6105 12.9148C24.5944 12.8873 24.5704 12.8654 24.5416 12.8518C24.5129 12.8381 24.4807 12.8335 24.4493 12.8385C20.9892 13.4354 17.6215 14.4799 14.431 15.9459C14.4037 15.9575 14.3807 15.9773 14.3651 16.0025C7.98436 25.5352 6.2366 34.8336 7.09399 44.0168C7.09638 44.0393 7.10328 44.0611 7.11427 44.0809C7.12526 44.1007 7.14013 44.1181 7.15798 44.132C11.3677 47.2237 15.4457 49.1006 19.4479 50.3446C19.479 50.3539 19.5123 50.3535 19.5431 50.3434C19.574 50.3333 19.6011 50.3139 19.6207 50.288C20.5674 48.9951 21.4112 47.632 22.135 46.1985C22.145 46.1788 22.1507 46.1573 22.1517 46.1353C22.1527 46.1133 22.1491 46.0913 22.141 46.0709C22.133 46.0504 22.1206 46.0318 22.1049 46.0164C22.0891 46.0011 22.0703 45.9892 22.0496 45.9816C20.7109 45.4737 19.4363 44.8548 18.2103 44.1517C18.188 44.1385 18.1692 44.1201 18.1557 44.098C18.1422 44.0759 18.1343 44.0508 18.1328 44.0249C18.1312 43.999 18.1361 43.9732 18.1469 43.9496C18.1577 43.9261 18.1742 43.9055 18.1948 43.8898C18.4534 43.6965 18.7076 43.4973 18.9572 43.2923C18.979 43.2743 19.0055 43.2627 19.0336 43.2588C19.0617 43.255 19.0903 43.2591 19.1162 43.2707C27.1713 46.9483 35.8916 46.9483 43.8515 43.2707C43.8775 43.2584 43.9065 43.2537 43.935 43.2572C43.9635 43.2606 43.9905 43.2722 44.0127 43.2904C44.2625 43.4965 44.5174 43.6964 44.7771 43.8898C44.7978 43.9054 44.8144 43.9258 44.8254 43.9493C44.8363 43.9727 44.8414 43.9985 44.8401 44.0244C44.8387 44.0502 44.831 44.0754 44.8177 44.0976C44.8044 44.1198 44.7858 44.1384 44.7636 44.1517C43.5368 44.868 42.2518 45.4795 40.9223 45.9797C40.9016 45.9876 40.8829 45.9997 40.8673 46.0154C40.8517 46.031 40.8395 46.0498 40.8316 46.0704C40.8238 46.0911 40.8203 46.1131 40.8216 46.1352C40.8228 46.1573 40.8287 46.1788 40.8389 46.1985C41.5752 47.6206 42.4148 48.9868 43.351 50.2861C43.37 50.3127 43.397 50.3326 43.428 50.3431C43.4589 50.3536 43.4924 50.3542 43.5237 50.3446C47.5454 49.1006 51.6234 47.2237 55.8334 44.132C55.8514 44.1187 55.8664 44.1018 55.8775 44.0822C55.8885 44.0627 55.8953 44.0411 55.8973 44.0188C56.9236 33.4021 54.1784 24.1797 48.6201 16.0045C48.6065 15.9779 48.5838 15.9571 48.5561 15.9459ZM23.3379 38.4253C20.9127 38.4253 18.9144 36.1989 18.9144 33.4646C18.9144 30.7302 20.874 28.5038 23.3379 28.5038C25.821 28.5038 27.7998 30.7499 27.7609 33.4646C27.7609 36.1989 25.8018 38.4253 23.3379 38.4253ZM39.6923 38.4253C37.2671 38.4253 35.269 36.1989 35.269 33.4646C35.269 30.7302 37.2284 28.5038 39.6923 28.5038C42.1754 28.5038 44.1542 30.7499 44.1156 33.4646C44.1156 36.1989 42.1754 38.4253 39.6923 38.4253Z" fill="white"/>
</g>
</g>
<defs>
<clipPath id="clip0_6883_24076">
<rect width="63" height="63" rx="31.5" fill="white"/>
</clipPath>
</defs>
</svg>
