<svg width="63" height="63" viewBox="0 0 63 63" fill="none" xmlns="http://www.w3.org/2000/svg">
<path d="M31.5 0C14.0962 0 0 14.0962 0 31.5C0 45.4388 9.01687 57.2119 21.5381 61.3856C23.1131 61.6613 23.7038 60.7163 23.7038 59.8894C23.7038 59.1413 23.6644 56.6606 23.6644 54.0225C15.75 55.4794 13.7025 52.0931 13.0725 50.3212C12.7181 49.4156 11.1825 46.62 9.84375 45.8719C8.74125 45.2812 7.16625 43.8244 9.80437 43.785C12.285 43.7456 14.0569 46.0687 14.6475 47.0137C17.4825 51.7781 22.0106 50.4394 23.8219 49.6125C24.0975 47.565 24.9244 46.1869 25.83 45.3994C18.8212 44.6119 11.4975 41.895 11.4975 29.8463C11.4975 26.4206 12.7181 23.5856 14.7262 21.3806C14.4113 20.5931 13.3088 17.3644 15.0412 13.0331C15.0412 13.0331 17.6794 12.2063 23.7038 16.2619C26.2237 15.5531 28.9013 15.1987 31.5788 15.1987C34.2563 15.1987 36.9338 15.5531 39.4538 16.2619C45.4781 12.1669 48.1163 13.0331 48.1163 13.0331C49.8488 17.3644 48.7463 20.5931 48.4313 21.3806C50.4394 23.5856 51.66 26.3813 51.66 29.8463C51.66 41.9344 44.2969 44.6119 37.2881 45.3994C38.43 46.3837 39.4144 48.2738 39.4144 51.2269C39.4144 55.44 39.375 58.8263 39.375 59.8894C39.375 60.7163 39.9656 61.7006 41.5406 61.3856C47.7943 59.2751 53.2285 55.2563 57.0781 49.895C60.9277 44.5338 62.9989 38.1002 63 31.5C63 14.0962 48.9038 0 31.5 0Z" fill="white"/>
</svg>
